<svg width="20" height="20" viewBox="0 0 20 20" fill="none" xmlns="http://www.w3.org/2000/svg">
<g id="chat" clip-path="url(#clip0_4024_12)">
<path id="Vector" d="M10.0002 2.5C4.91424 2.5 1.25018 5.80469 1.25018 9.375C1.25018 10.8242 1.85565 12.1328 2.81268 13.2812C3.01581 13.5273 3.14081 13.8594 3.10174 14.2148C2.98065 15.2695 2.65643 16.2656 2.09784 17.1953C2.07831 17.2305 2.05487 17.2656 2.03534 17.2969C2.46893 17.1836 2.90253 17.0234 3.31268 16.8477C3.97674 16.5586 4.60174 16.1953 5.20331 15.7773C5.53534 15.5469 5.96112 15.4844 6.34393 15.6133C7.53924 16.0195 8.75409 16.25 10.0002 16.25C15.0861 16.25 18.7502 12.9453 18.7502 9.375C18.7502 5.80469 15.0861 2.5 10.0002 2.5ZM0.00018184 9.375C0.00018184 4.89062 4.47284 1.25 10.0002 1.25C15.5275 1.25 20.0002 4.89062 20.0002 9.375C20.0002 13.8594 15.5275 17.5 10.0002 17.5C8.59393 17.5 7.24628 17.2383 5.94549 16.8008C5.93768 16.7969 5.92596 16.8008 5.91815 16.8047C5.25799 17.2617 4.56268 17.668 3.81268 17.9961C2.87518 18.4023 1.74628 18.75 0.625182 18.75C0.371276 18.75 0.144713 18.5977 0.0470568 18.3672C-0.0505994 18.1367 0.00408808 17.8672 0.179869 17.6875C0.496276 17.3672 0.773619 16.9766 1.02753 16.5547C1.48456 15.7891 1.75799 14.9688 1.85956 14.0898C1.85956 14.0898 1.85565 14.0859 1.85565 14.082C0.765807 12.7773 0.00018184 11.1953 0.00018184 9.375Z" fill="black"/>
</g>
<defs>
<clipPath id="clip0_4024_12">
<rect width="20" height="20" fill="white"/>
</clipPath>
</defs>
</svg>
